<mxfile host="app.diagrams.net" modified="2021-04-27T13:37:06.189Z" agent="5.0 (Macintosh; Intel Mac OS X 10_15_7) AppleWebKit/537.36 (KHTML, like Gecko) Chrome/90.0.4430.85 Safari/537.36" etag="qRyaoErjSGacALVdr3h4" version="14.6.6" type="github" pages="2">
  <diagram id="Mb-E_h8rPprss29CXxVP" name="simple">
    <mxGraphModel dx="946" dy="589" grid="1" gridSize="10" guides="1" tooltips="1" connect="1" arrows="1" fold="1" page="1" pageScale="1" pageWidth="827" pageHeight="1169" math="0" shadow="0">
      <root>
        <mxCell id="0" />
        <mxCell id="1" parent="0" />
        <mxCell id="oTEM2RfRCT9A8cPhHAnN-1" value="" style="group" parent="1" vertex="1" connectable="0">
          <mxGeometry width="657.7800000000001" height="370" as="geometry" />
        </mxCell>
        <mxCell id="oTEM2RfRCT9A8cPhHAnN-5" value="" style="group" parent="oTEM2RfRCT9A8cPhHAnN-1" vertex="1" connectable="0">
          <mxGeometry width="657.78" height="370" as="geometry" />
        </mxCell>
        <mxCell id="oTEM2RfRCT9A8cPhHAnN-2" value="" style="rounded=0;whiteSpace=wrap;html=1;strokeColor=none;fillColor=#000000;aspect=fixed;" parent="oTEM2RfRCT9A8cPhHAnN-5" vertex="1">
          <mxGeometry width="657.78" height="370" as="geometry" />
        </mxCell>
        <mxCell id="oTEM2RfRCT9A8cPhHAnN-3" value="&lt;font style=&quot;font-size: 32px&quot;&gt;������MacOS备忘录使用&lt;/font&gt;" style="text;html=1;strokeColor=none;fillColor=none;align=center;verticalAlign=middle;whiteSpace=wrap;rounded=0;fontColor=#FFFFFF;fontSize=48;" parent="oTEM2RfRCT9A8cPhHAnN-5" vertex="1">
          <mxGeometry x="11.889999999999986" y="175" width="634" height="20" as="geometry" />
        </mxCell>
        <mxCell id="oTEM2RfRCT9A8cPhHAnN-4" value="By 3941" style="text;html=1;strokeColor=none;fillColor=none;align=center;verticalAlign=middle;whiteSpace=wrap;rounded=0;fontColor=#FFFFFF;fontSize=24;" parent="oTEM2RfRCT9A8cPhHAnN-5" vertex="1">
          <mxGeometry x="131.72500000000002" y="305" width="394.33" height="20" as="geometry" />
        </mxCell>
        <mxCell id="oTEM2RfRCT9A8cPhHAnN-6" value="" style="group" parent="1" vertex="1" connectable="0">
          <mxGeometry x="-1.4210854715202004e-14" y="420" width="657.7800000000001" height="370" as="geometry" />
        </mxCell>
        <mxCell id="oTEM2RfRCT9A8cPhHAnN-7" value="" style="rounded=0;whiteSpace=wrap;html=1;strokeColor=none;fillColor=#000000;aspect=fixed;" parent="oTEM2RfRCT9A8cPhHAnN-6" vertex="1">
          <mxGeometry width="657.78" height="370" as="geometry" />
        </mxCell>
        <mxCell id="oTEM2RfRCT9A8cPhHAnN-8" value="������EXCEL提取网页中的表格" style="text;html=1;strokeColor=none;fillColor=none;align=center;verticalAlign=middle;whiteSpace=wrap;rounded=0;fontColor=#FFFFFF;fontSize=48;" parent="oTEM2RfRCT9A8cPhHAnN-6" vertex="1">
          <mxGeometry x="11.889999999999986" y="175" width="634" height="20" as="geometry" />
        </mxCell>
        <mxCell id="oTEM2RfRCT9A8cPhHAnN-9" value="By 三九四一" style="text;html=1;strokeColor=none;fillColor=none;align=center;verticalAlign=middle;whiteSpace=wrap;rounded=0;fontColor=#FFFFFF;fontSize=24;" parent="oTEM2RfRCT9A8cPhHAnN-6" vertex="1">
          <mxGeometry x="131.72500000000002" y="305" width="394.33" height="20" as="geometry" />
        </mxCell>
        <mxCell id="oTEM2RfRCT9A8cPhHAnN-10" value="" style="group" parent="1" vertex="1" connectable="0">
          <mxGeometry y="830" width="657.7800000000001" height="370" as="geometry" />
        </mxCell>
        <mxCell id="oTEM2RfRCT9A8cPhHAnN-11" value="" style="rounded=0;whiteSpace=wrap;html=1;strokeColor=none;fillColor=#000000;aspect=fixed;" parent="oTEM2RfRCT9A8cPhHAnN-10" vertex="1">
          <mxGeometry width="657.78" height="370" as="geometry" />
        </mxCell>
        <mxCell id="oTEM2RfRCT9A8cPhHAnN-12" value="������八爪鱼爬取知乎热榜" style="text;html=1;strokeColor=none;fillColor=none;align=center;verticalAlign=middle;whiteSpace=wrap;rounded=0;fontColor=#FFFFFF;fontSize=48;" parent="oTEM2RfRCT9A8cPhHAnN-10" vertex="1">
          <mxGeometry x="11.889999999999986" y="175" width="634" height="20" as="geometry" />
        </mxCell>
        <mxCell id="oTEM2RfRCT9A8cPhHAnN-13" value="By 三九四一" style="text;html=1;strokeColor=none;fillColor=none;align=center;verticalAlign=middle;whiteSpace=wrap;rounded=0;fontColor=#FFFFFF;fontSize=24;" parent="oTEM2RfRCT9A8cPhHAnN-10" vertex="1">
          <mxGeometry x="131.72500000000002" y="305" width="394.33" height="20" as="geometry" />
        </mxCell>
      </root>
    </mxGraphModel>
  </diagram>
  <diagram id="oQiKFq93y42IK_gPiuYo" name="blackboardgreen">
    <mxGraphModel dx="946" dy="589" grid="1" gridSize="10" guides="1" tooltips="1" connect="1" arrows="1" fold="1" page="1" pageScale="1" pageWidth="827" pageHeight="1169" math="0" shadow="0">
      <root>
        <mxCell id="flbcN0NEi42BXsgXw5nt-0" />
        <mxCell id="flbcN0NEi42BXsgXw5nt-1" parent="flbcN0NEi42BXsgXw5nt-0" />
        <mxCell id="flbcN0NEi42BXsgXw5nt-2" value="" style="group" parent="flbcN0NEi42BXsgXw5nt-1" vertex="1" connectable="0">
          <mxGeometry width="685.1399999999999" height="490" as="geometry" />
        </mxCell>
        <mxCell id="flbcN0NEi42BXsgXw5nt-3" value="" style="shape=image;verticalLabelPosition=bottom;labelBackgroundColor=#ffffff;verticalAlign=top;aspect=fixed;imageAspect=0;image=data:image/jpeg,/9j/4AAQSkZJRgABAQEAAAAAAAD/4QAuRXhpZgAATU0AKgAAAAgAAkAAAAMAAAABAAAAAEABAAEAAAABAAAAAAAAAAD/2wBDAAoHBwkHBgoJCAkLCwoMDxkQDw4ODx4WFxIZJCAmJSMgIyIoLTkwKCo2KyIjMkQyNjs9QEBAJjBGS0U+Sjk/QD3/2wBDAQsLCw8NDx0QEB09KSMpPT09PT09PT09PT09PT09PT09PT09PT09PT09PT09PT09PT09PT09PT09PT09PT09PT3/wAARCAFTAdoDASIAAhEBAxEB/8QAHwAAAQUBAQEBAQEAAAAAAAAAAAECAwQFBgcICQoL/8QAtRAAAgEDAwIEAwUFBAQAAAF9AQIDAAQRBRIhMUEGE1FhByJxFDKBkaEII0KxwRVS0fAkM2JyggkKFhcYGRolJicoKSo0NTY3ODk6Q0RFRkdISUpTVFVWV1hZWmNkZWZnaGlqc3R1dnd4eXqDhIWGh4iJipKTlJWWl5iZmqKjpKWmp6ipqrKztLW2t7i5usLDxMXGx8jJytLT1NXW19jZ2uHi4+Tl5ufo6erx8vP09fb3+Pn6/8QAHwEAAwEBAQEBAQEBAQAAAAAAAAECAwQFBgcICQoL/8QAtREAAgECBAQDBAcFBAQAAQJ3AAECAxEEBSExBhJBUQdhcRMiMoEIFEKRobHBCSMzUvAVYnLRChYkNOEl8RcYGRomJygpKjU2Nzg5OkNERUZHSElKU1RVVldYWVpjZGVmZ2hpanN0dXZ3eHl6goOEhYaHiImKkpOUlZaXmJmaoqOkpaanqKmqsrO0tba3uLm6wsPExcbHyMnK0tPU1dbX2Nna4uPk5ebn6Onq8vP09fb3+Pn6/9oADAMBAAIRAxEAPwD1p3OTzUA1eyhZkkuEDA8gdvyputO9vp7vCCzsQuAPWuD1nUbiwtjcCMxwQDfLsj+Z+wUAn8c1y1q7g1FLU3pUlNXZ351qxIOJwTjjCmof7XtR/wAtj/3ya4/R9bh1ISfumG0K65HIDdj7itHzVPRR+JFc312fZG31aPdnRR65YqmGn5z/AHTRJr2nlCBPz/umueB9l/8AHaMr32D8j/Sj67Psg+rR7s3BrVkek/6Gp01uxCAGbn/dNc3vX+Fl/Bc/0pd5/vN+CGj67Psg+rw7s6KTW7IrgTHP+6ai/tm0/wCex/75NYg3H+JvxUily3Q8/VM0vrs+yD6vHuzfGv6eAAZzkDn5TTZdesCoxOev9w1gkD0X/v3ShI+6r/3xT+uT7IPq0fM2f7bs/wDnsf8Avg1YGuWR6SOf+AGuaeO3P8aj8KjdIOzR/oaX1yfZB9Wh3Z00usWjEbXbgf3DTRq9tkHe+M/88zXOxG3iAX922O5NP86LswA9A2P6UfXZ9kH1ePmdL/bdn/ff/vg1FJrFqXyHfGP+eZrnzLEer5/4ET/SjfB3I/M/4UfXJ9kH1aPmby61aq4Jd8Dr+7NS/wBvWX9+T/v2a54G1P8AEv50uy29Fo+uT7IPq8fM221u1ZyQ0mP+uZpY9ZtlfJaTGP8AnmaxMW46bfzpd/8AddB9eaPrk+yD6vHzN7+3bL+9J/37NRHWrYkkGTGf+eZrBKSk8XKj2C0eTIfvT5+i0fXKnZB9Xh3ZvprlohJZpMHp+7NO/wCEisP70v8A36b/AArBEK/xOx+lBiiHUt+eaPrlTsg+rw7s1/7dtP703/fo1JF4gswOfO56fumrD2Qf7X4U3ZEPuhz9SaPrlTyH9Xh5nQnX7Ug4E3/fs1D/AG3bDtN/37NY/mP2Ax7qTS/MeuwfVP8A69H1yfkL6vA201+0UYPnZz/zzNK2v2hQgedk/wDTOsPaf70f/fH/ANenBEx8wUn1AxR9cqeQfV4eZrf21bf9Nf8AvipF1+0CgHzsjr+7rDIj7HFJ8v8Az0H6UfXKnkH1eHmbj6/alcDzc5/uVH/blt/01/74rH3n/nt/L/CgOe8ufxo+uVPIf1eBuDxDZqAD5ucf3DTH8Q2bAAGTr/crH35/iX9aaY2fpJj6Zo+uVPIPq8DX/t619ZP++an/AOEhs/8Ab/Kue+zMf+W7D6Cj7OR/y2kNH1yp5B9XgbkviGzOMGTjr8tRjxDZgg5l4P8AcrHw6dCT6EuBSebL32/hIKX1up5B9Xgb/wDwk1j/ANNv+/dMbxDaOcqJsY/551h/aHHVX/BhR9p9fN/MGj65UD6tA3k1y33A7Zv++Km/t23/AOec3/fI/wAa5rzcnIBb/eYCmOZnP/LJV7ANR9cqeQfVoHRvrUJckJNj/dFIuu26NkrLjHoP8a59DIP4lPsST/SpPtLIPmTJ9Qpo+uVPIPq0DcPiW0H8En5D/GoT4jtSSQJOT6D/ABrHN4p6xP8AypPtK/8APF/zNL63U8h/VoG3H4jtVJJWXn2H+NSjxHanpHN/3yP8a57zlP8AywelG1+kbD6kCj63U8hfV4G4dcg/uy/kKcniC3XOY5Tnp0/xrB8pe+B+Kn+lGI06sf8AvgH+lH1up5B9XgdAfEVvg/upenqv+NQf8JBD/wA8pvwANY29R0MZ+seP6Un2lhwPI/Ij+lP63UD6vA3k8SW6jDRTZz/dFPHiK2fK7JUz3KcCuS1KWWWzaNXihVvvSpkMB1wPc9PxrI0PW7i/uEhls/KcKQ6OS+0Dox9z0prF1N9A+rwPT0k3gMrAqwyCOc1PvPrWT4fAlsnXoEbgBcYzz3rZ8oepr0ac+eKkcc1yyaMnxPJs0aV1XzGQhggPLew9T7V59caityAs2jaku05BEe08/j3rvdf/AOPA/wDXRf51z11F+8HH8Kn8q4MXbn1XQ6qCfLdM56HW7Pw7ahDp17DHK27dKu4sT759v0p48eaeekM3/fFVvHUYGn2h/wBoD9DXIxgYoo0YTjdmNavOnKyO4/4Tux/54zf98Uf8J3Yf88Z/++K4rAowK1+qw8zL63PyO2/4Tuw/54z/AIJSHx1Yn/lncj/gA/xrisCjAo+qw8w+tz8js/8AhN7H+7c/98Ck/wCE2sj/AAzn6oK43AowKPqsPMPrc/I7H/hNbD/nlN/37FH/AAm1j/zym/79iuOwKMCj6rT8w+uT8jsh43sf+eEp/wCAClHjqzHS3m/BQK4zAowKPqsPMPrdTyOz/wCE8tP+eE//AHyP8aP+E7tf+eM//fA/xrjMUYFH1an5h9bqeR2X/Cd23/PGf/vkf40n/CdWv/PGf/vkf41x2B6UYFH1WHmH1up5HZf8JzZ/88rgfRRSf8Jvaf3Lr/vkVx2BRgUfVafmH1yp5HY/8Jza/wDPO5P1UUv/AAnVp/zxnP8AwAf41xuBRgUfVafmH1up5HZ/8J1Zj/lhP+QH9aQ+OrM9be4P4D/GuNxRgelH1WAfW5nXnxvZ/wDPnOfwH+NNPjaz/wCfKX8QK5LA9KMCj6rAPrdQ6v8A4TW27Wkn5Cj/AITeAdLWT8h/jXKYFGBR9VgH1uodcPHcQ/5dpfyH+NL/AMJ3b97af8AP8a5DAowKPq0BfW6h13/CcW3/AD7XH6f40n/CcW3/AD7XP6f41yWBRij6rAf1uodZ/wAJzb/8+tx+Y/xpD45i7Wk/4kf41ymKMUfVafYPrdTudX/wnUf/AD6Tf99D/GnDx3F3tZ/wI/xrksUYHpR9WgL63U7nXf8ACdwH/l1n/T/Gk/4Ti3/59bj81rksCjAo+rQ7B9bqHW/8Jxb/APPrc/mtNPjeD/n0n/ErXKYoxT+rU+wfW6nc6r/hNoO1lL+JWk/4TaLtZP8A+O1y2KMUfVodg+tVO51SeOkXpZP+YFO/4T5f+fJ/++hXJ4oxR9Wh2D61U7nWf8J6v/Pk/wCYpP8AhPV/58n/ADFcpijFH1aHYPrVTudV/wAJ2v8Az5P/AN9Un/CdD/nyf/vuuWxRij6tDsL61U7nU/8ACdD/AJ8n/wC/lJ/wnH/Tk/8A38rl8UYo+rU+wfWqnc6r/hPG6fYmP1cGk/4Ts/8APif++hXLYoxR9Wh2D61U7nUf8J03/Pl/48KP+E7f/ny/UVy+KMUfVodg+tVO51P/AAnkv/Pmf++hS/8ACfMF/wCPN/8AvoVytIehp/Vodg+s1O52Vn4pudb8yCDTlcKAGWWUKDn8Pap4hqFk8r22i2cbuFaRluQN2eBn5axvBIzeXX0U/wA67UJ5kchPeOM/rXFUShNpI7qLc4Jtm54UkdrGUXCpHOHxJGhyFP8AvfxeueK38j1Fc9oYw177yg/pW3Xp4d3po5auk2Z/iBFTTC3PDqf1rAugMBvUYFb/AIkYHR5MHJDLXP3T4gHsuf0rgxvx/I68N8PzOV8fcabbj/pqP5GuOj6V2Hj8/wCgW3/XQH9K4+LpW+F/h/M4sX/EHUUUV0nKFFFFABRRRQAUUUUAFFFFABRRRQAUUUUAFFFFABRRRQAUUUUAFFFFABRRRQAUUUUAFFFFABRRRQAUUUUAFFFFABRRRQAUUUUAFFFFABRRRQAUUUUAFFFFABRRRQAUUUUAFB+7RQfu0AdB4FGb+6Hqo/rXcW4xCc/881H61xHgX/kI3P8Aur/Wu6jGLVj/ALP9a8rEfxGevhv4aNnQUD/as5++P5VteUvvWN4fZRHOc9XB/StrevrXp4f+GjlrfGzE8Qf8gmb8Kwbn50kH91P6V0fiRQNGmIHOR/Ouf2bjP9AP0rhxv8T5HVhvh+Zyfjs50y0P+2P5VyEfSut8bj/iU2/tNj9K5KLpW+F/h/M4sX/E+Q6iiiuk5QooooAKKKKACiiigAooooAKKKKACiiigAooooAKKKKACiiigAooooAKKKKACiiigAooooAKKKKACiiigAooooAKKKKACiiigAooooAKKKKACiiigAooooAKKKKACiiigAoP3aKD0NAHQeBf+Qjc/wC6P613w/49WX/ZNcB4G/4/7n/dH9a9AHKOP9g15WI/iM9bDfw0X9A/49pMdMrj8q2qyfDKq1pJkZxt/lW5sX0r08N/CRy1/jZleInVtHmXnOV/nWChAmkB/iK/yra1/wD5BU34Viy/IQ3qQP0rhxnxr0OrDfA/U5Hx1/yDIf8Ar4P9a4+PoK7Dxz/yDIv+vg/1rj4ulb4X4PmceL+P5D6KKK6TlCiiigAooooAKKKKACiiigAooooAKKKKACiiigAooooAKKKKACil5pKACiijmgAoo5o5oAKMGlxSjigBMH1ox70+mnNADfxoxTgKCRQA2ilApcCgBtFKaSgAooooAKKKKACiiigAooooAKKKKACiiigAooooAKD0NFB6GgDf8Ef8f9z/ALo/rXfQ8ySD/ZxXAeCf+P8Auf8AdH9a7+2/18n+6K8vE/xGethv4SNTw0wjt5g2eCB+lbvmrXP6H9y5/wB8fyrar0sN/DRzVvjZS8RqP7GmwBnjt71zdy/EYyeqjFdHr8obSpVx3X+dc1ckmSEY4YqR+dcOM+Neh04b4fmcv46/5BsP/Xcn+dcfH92uv8c86bF/13P9a5GLpW+F+D5nHi/4g6iiiuk5QooooAKKKKACiiigAooooAKKKKACiiigAopQM0+gCOlwaUkUmTQAuKdTRTqAGnpSDFPpuBQAUYFOooAaRmgDFOpueaAHUUUUAFFFFADCaUCjAoyOgoAdTD1p9FADMGkqSmHrQAlFFFABRRRQAUUUUAFFFFABRRRQAUUUUAFFFFABQehooPQ0Ab/gj/kIXJ9FH9a761IM0hHQqprgvAwBv7v2RSP1ruUDJCWVsMwTkdq8vEfxGethv4SNvw6Bi6BAOHHX6Vt4HoKwtAcR/a+MguMflW35o9DXpYb+GjlrfGzJ1sE6fIMdWX+dc+TvFsPU5/Wup1r/AJBrf7y/zrloxzB/sqT+tcON+Neh14b4Gcp4250yM/8ATwf61yMfSuu8a/8AIJj9RP8A41yMfSt8L8HzOLF/H8h1FFFdJyhRRRQAUUUUAFFFFABRRRQAUUUUAFFFFADhxTqKZn0oAXAowPU0CnUAJ0paKbuFADqKZk0lAElFMHFGc0ALnrQBikAp9ABRTScUmTQA+mk02loAME0vSk30ZNAD6KjyfWlBoAfTD1p9MPWgBKKKKACiiigAooooAKKKKACiiigAooooAKKKKACg9DRQehoA6DwL/wAhC7/65r/Ou+Qf6GT/ALFcB4G/5CF17ov8679B+5C+2DXl4j+Iz1sN/DRo6IDi4/3x/Ktqsvw792593/xrbr0sN/CRzV/jZl6xKWsHXH8S/wA65uE4eMf3kb+ddFqwYWTkg43L/OubHE1v7lxXDjPjXodOH+H5nL+NxjSkH/TVT/OuPi6V2Xjv/kGp/wBdE/rXGRdK3wvwfM48X8fyH0UUV0nKFFFFABRRRQAUUUUAFFFFABRRRQAUopKXrQAdfpTsAUCloAbwKTPpSkZoxQAnJo4HXrTulNoAOTQR60lGTQAUoHrRRk0AKSKTJpKKACiiigAooooAKKKKACiiigBc8UlFFABRRRQAUUUUAFFFFABRRRQAUUUUAFFFFABRRRQAUH7tFB+7QBveCTjUrj3Vf/Qq7+M4GewNef8Agn/kJXH+6v8AOu8TJUgdyR+leXif4jPXwv8ACRsaAzRfawefnGPyrb80+grD0XJa6wCfmXp9K2cH0P5V6WG/hI5K/wAbK2tf8g1/95f5iuVuOI7dvSRh/Ouk1qUmwcHGNy/zrm7wj7DG3pJmuLG/GvQ6sN8PzOa8ef8AIPi95F/rXGRdK7Px5j+zYfaQZrjI+lbYX+H8zjxfx/IdRRRXScoUUUUALSUUUAFFFFABRRRQAtJRSgUAAGafRRQAUUUUAFISBSE4ptACk5pKKKACiiigAooooAKKKKAFpKKKAFopKKAFpKKKAClpKKAFpKKKACiiigBaSiigBaKSigApaSigApaSigBaSiigAooooAKD0NFB6GgDe8E/8hO4/wB1f513kP32+p/lXB+Bv+QrP/uD+dd/EMSH3Ga8vE/xGethf4aNbw0ci5P+0v8AKt2ue8PSFY5yMcla2/NPtXo4b+EjmrfGzO1pWGnuSONy/wA65q5ObBR6yDFdXrf/ACC5P95f5iuTvAqRxRr0Bz+dceN+Neh04b4X6nN+O/8AkGp7Sr/KuOj6V2Xjv/kGj/rsP5VxsXStsL8HzOPF/H8h1FFFdJyhRRRQAUUUUAFFFFABRS0vFACDBp9MJ9KMmgB9N9c0A0j0AGTRnikooAKKKKACiiigAooooAKKKKACiiigAooooAKKKKACiiigAoopcE0AJRSkEUgoAKKXNJQAUUUUAFFFFABRRRQAUUUUAFFFFABRRRQAUHoaKD0NAG74JONTuD6Rg16BCckn1rz3wd/x/wB3/wBcq9CiGMfT+teXif4jPWw38NGj4fUmOfAzgjP61ueW3p+tZPhsYW4How/rW5Xo4b+Ejmr/ABsydXZjYSAk4yv865q5QlwfRkH5iun1eIiwkJxjI/nXPAK8jbvVSPrg1x4z416HThvhZy3jv/kG/wDbZa4uPpXa+Ox/xLP+2y1xUfStsL/D+ZyYz4/kOoopa6TkEopaSgAopaSgApaMUUAB60lFFABRRRQAtB60lFABRRRQAUUUUAFFFFABRRRQAUUUUAFFFFABRRRQAUUUUAFLjNJS5NAC4A60hPpSUUAFFFFABRRRQAUUUUAFFFFABRRRQAUUUUAFFFFABRRRQAUHoaWkPQ0AbXg7P9oXQ9YsV6LH2+grzzwV/wAhWYeqAfrXoEP3M+gFeXif4jPWw38NGrorFTc7Tj5hWzvb1NY2hqZWuSMdV/lW15Te1elhv4aOet8bKus/8g2X8P5iuY6TH/gP8yK39YcjTZjk8Y7+9YB7n/ZU/wDjxrixvxr0OjDfCzmfHf8AyCR7yrXEx9K7Xx1/yB4/eVf61xMXStsL8HzOTF/H8h9FFFdJyBRRRQAUUUUAKeaSiigAooooAKKKKACiiigAooooAKKKKACiiigAooooAKKWjBoASlwaMetLgUAGKMCnUwnNABkDoKTrRRQAUUUUAFFFFABRRRQAUUUUAFFFFABRRRQAUUUoFABg0bTS5xTqAI6KcRTaACiiigAoPQ0UH7tAG54J/wCQxL/uj+degwf6s/7prz3wT/yGJf8AdH869Ah+4foa8vE/xGethv4aNfwwcx3B91/lW9XNeGyRDNgkcr0+lb2W/vH869HC/wAJHNX+NlDXYiukXDZ6AfzrEdB9mJ77cVv+IP8AkCXX+6P51g9YXHocVx4z416HRh/hZyHjn/kCw/8AXQf1ri4uldn42/5A8f8A10H8zXGRdK1wvwfM5cX8fyH0UUV1HIFFFFABRRRQAUUUUAFFFFABRRRQAUUUUAFFFFABRRRQAUUtGAOtABRx9aM+gpKAHZozScUZ9BQAZNLnHvTaKAFOaSiigAooooAKKKKACiilAFABgmjAp9FADM+1H4UEYpKACiiigAoopeaAAUu4UYpeKAE69qdTc0mfagB9MNGfakoAKKKKACg/dooPQ0AbXgr/AJC83/XMfzr0GI4z9cV594M/5C0//XMfzrv4zwfrXl4n+Iz1sL/DRqeGoi0c3OMFetb3k+9Y3hn/AFc30X+tb1ejhf4SOav8bMbXP+QVcfQVjRvjzR/tcflW9rcQGlTnJ6D+dc3nMxA/iYn/AMdrjxvxr0OnD/C/U5bxnzoyn0lH/oRrjYuldp4yH/EhH/XVf/QjXFxdK1wvwfM5MX8fyH0UUV1HIFFFFABRRRQAUUUUAFFFFABRRRQAUUUUAFFFFABRRRQAtJRRQAUUUUAFFFFABRRRQAUUUUAFFFKOaAEop2BScdqAEpQcUlFADtwo3Cm0UAKTRSUUAFFFLmgAwaXIHSm9e9FAC5NJRRQAUUUUAFFFFABRRRQAUHoaKD0NAGz4M/5Ctx/1y/rXfA4DexrgvBgzqtwfSIfzrvthCSg/xE4/KvLxPxs9bC/w0a2hjAmHoAP51t1j6BGH8/kjG3+tbnlD1Nejhf4SOet8bKWtEHTJhkZ47+9ctFzOh9QT/wCOiui1b/jwm/D+dYEI+eM/7J/pXHjfjXodGG+FnNeNwBoj46eYn8zXERdK7fxt/wAgRv8Aron864eLpWuE+B+pyYv4/kPooorqOQKKKKACiiigAooooAKKKKACiiigAooooAKKKKACiiigAooooAKKKKACiiloASilwaXFADaKXBpcUANp1FB9zQAhOaMGjPpRk0ALgetJxSUUALn2pKUClwPWgBtFLxRkelACUUUUAFFFFABRRRQAUUUUAFFFFABRRRQAUH7tFB6GgDd8EDOrXA/6ZD/0Ku+7E+gJrgvBH/IXuP8ArkP/AEKu9TPmL6d68vE/Gz1sL/DRseHiA1xkgZI6/jW5uHqPzrntE/5a/Rc/rW3Xo4X+Ejmr/GyrrEajTZiM5AHf3rnkGI4z/s4rodYkU6ZOAecD+dc9JKIoEGMlsD6VyYz416HThvhfqcv4340Yj1dP51w0XSu68dj/AIk//A1/nXCx/drXC/B8zkxfxr0H0UUV0nIFFFFABRRRQAUUUUAFFFFABRRRQAUUUoGaAEpcH0p9FADMGjml3CjNACYNL8opM5pKAFpKKUYoAUCnUwn0pKAHZpMmkowaAFzRk0YNGKADk0YPpRil49aAEwfSil3Ckz7UAJRS0lABRRRQAUUUUAFFFFABRRRQAUUUUAFFFFABRRRQAUUUUAFB+7RQfu0Abvgg41if3i/9mrvRL+7kI6oK8+8FH/idye8eP1rvcf60D+JSf0ry8T/EZ62F/ho3NBUO9xnOBjGD9a3PKX3/ADrD8PkRmYMcHapNbnmL616OF/hI563xsytX/wCQfP8AQfzFYFz98egU10mtoo0i4IAyFHP4iufcB3kX/ZyK5Mb8a9Dow3wv1OY8df8AIG/4GtcLH0Fd146/5Ah/30rhYugrXC/B8zkxfxr0H0UUV0nIFFFFABRRRQAUUUUAFFFFABRzRS5NABj1pdwpAPal4oATJpKUn2pKACiiigAoopaAEpcGjI7UZNABj1peBTaKAHbhSZpKKAFzRk0lFABRRRQAUUUUAFFFFABRRRQAUUUUAFFFFABRRRQAUUUUAFFFFABRRRQAUUUUAFB+7RQfu0AbPgz/AJDcn/XMfzrv4hmf8f6VwHgz/kNyf9cx/Ou/Q4uT7Mf5V5eJ+NnrYT+GjW0d1e5uVB5ULn9a2/xrF8PRg3F2GAJ4J/M10GxfSvRwv8JHPW+NmbrcoOk3IGc7f61gIczn/dP862ta/wCQZc/7v9awov8AXMfY/wA65MZ8a9Dow3ws5vx1/wAgY/8AXRf51wsXSu68df8AIGb/AK6L/OuFi6VphfgfqcmL+P5D6KKK6jkClpKKAF/Cj8KSigBePQ0vA9abRQA7NJSUUAFLSUUALSUUUAFFFFABRRRQAUUUUAFFFFABRRRQAUUUUAFFFFABRRRQAUUUUAFFFFABRRRQAUUUUAFFFFABRRRQAUUUUAFFFFABRRRQAUUUUAFB+7RQfu0AbPgz/kNyf9c/616BsxJn1Oa8/wDBn/Idf/rn/WvQzy49sV5eJ+Nnq4X4Ea2hyBbm4znBVMfrW55q+/5Vz2if66c/7K/1ra/z0r0cL/CRhW+NlfXQP7GujgZ2+nvXPQgfOc85PH41va5JnR7lcdVHf3Fc/b9ZPoP61yY3416G+G+F+pzXjr/kCN/11X+dcLF0ruvHX/IDb/rov864WLpWmF+B+py4v416D6KKK6jkCiiigAooooAKKKKACiiigAooooAKKKKACiiigAooooAKKKKACiiigAooooAKKKKACiiigAooooAKKKKACiiigAooooAKKKKACiiigAooooAKKKKACiiigAooooAKKKKACg9DRQehoA2PBv8AyG5P+uf9a9Dj5A+iV554N/5DMn/XL+tehwH7v+6p/KvLxP8AEZ6uF/ho1vDoBefIB+VOv41vYHoK5/QJBHNOMZ+RD/Ot3zR6V6GG/hIwrfGzL1n/AJBlx/uj+YrFiGHcf7IP866LXMf2RcknGFz9cHp9T0rhIvEbbyTpGqYKgD90vbP+171zYuLc0/I2w7STuUvHP/IDP/XRf51wkXQV2PiWa71rTzBaaXfB9wP7xVA/9Crm4/D2tAc6dN+Y/wAarDSUYtN21OfExcpppX0KtFXf+Ef1r/oHTfmP8aP+Ef1r/oHTfmP8a6PaQ7o5/Zz7MpUVe/4R7Wv+gdN+Y/xpP+Ef1n/oHy/iQP60vaQ7oPZT7MpUVe/4R7Wf+fF/++1/xo/4R7Wf+fFv++1/xo9pDug9lPsyjRV7/hHNZP8Ay4t/32v+NH/CPawOti3/AH0v+NHtId0Hsp9mUaKvf8I9rP8Az4t/30P8aP8AhHNZ/wCfFv8Avof40e0h3Q/Yz7Mo0Vf/AOEb1r/nxb/vof407/hGta/58W/77X/Gj2kO6F7KfZmdRWj/AMI1rX/Pkf8Avtf8aP8AhGda/wCfL/yIv+NHtId0P2M+zM6itH/hGda/58v/AB9f8aP+Ea1r/nz/APIi0e0h3Qexn2ZnUVf/AOEb1j/n1H/fxaP+Ea1k/wDLoP8Av4KPaw7oPYz7MoUVpDwvrR6Wg/7+Cl/4RXXP+fMf9/BR7WHdB7GfZmZRWp/wieuf8+Y/7+Cg+E9cHW0X8ZBR7WHdB7GfZmXRWl/wi+t/8+q/9/FpP+EY1n/n2X/v6tHtYd0HsZ9mZ1FaQ8L60f8Al3T/AL+rR/wi2tf8+8f/AH9FHtYd0HsZ9mZtFaf/AAietf8APsn/AH9FO/4RHXD/AMuqf9/RR7WHdB7GfZmVRWr/AMIjrv8Az6p/39FH/CH67/z6x/8Af0Ue1h3Qexn2ZlUVrf8ACH67/wA+0f8A39FJ/wAIfrn/AD7Rf9/hR7WHdB7GfZmVRWr/AMIfrf8Az7xf9/hSHwlrI6wwj/tqKPaw7oPYz7My6K0/+EW1f/nlD/38FH/CKax/zyh/7+Ue2h3Qexn2ZmUVqf8ACJ6x/wA8of8Av5S/8IjrP/PKH/v5R7WHdB7GfZmVRWt/wiGtf88of+/lH/CIa1/zyh/7+Ue2h3Qexn2Zk0VqnwlrA6pAPrKKT/hE9W/6dv8Av8KPbQ7oPYVOzMuitUeEtX/6dv8Av8KX/hD9XPa2/wC/1L20O6D2FTszJorW/wCEQ1f0tv8Av7R/wh2sf3bf/v7R7aHdD9hU7MyaK1/+EN1g/wANv/39pf8AhDNa/u2//fyj20O6D2FTszHorY/4QzWf7tv/AN/P/rUv/CFaz6W3/fz/AOtR7aHdB7Cp2ZjUHoa2v+EJ1r0t/wDv5/8AWpD4K1jpm2/7+f8A1qPbQ7oPYVOzE8HEDWZPePH6136HYiH1iz/L/GuL0bw3rGj35uTHaS5Xbt8/b/St5rnWMKBp1p8sez/j769P9n2rirWnNtM76CcIJNHVaIQbm4A6iNM/ma3q53wf57/aZrpFinfaDEjb1UDOPm7k/QV1NehhtKaOetrNmbqkx/s+b5c4HYZrmTe9OHX/AIBmuslh8xWRkJVhgjHWsK40i8jci3jiePsTJsNc+LpSk00rmtCaSabKIuSf+Wjf9+x/jUgkJ/jb/vipRpOp/wDPJfwnFL/ZOpHrbj8ZM1x+xqdmdHtId0RnZ1aQfiMU3zrQdZU/Opf7Fve9vED7yCnDSL4dIIfoJBR7Gp2Ye0h3RVN1ajgFW9MGk+0wf88T+VXRpWo9rdB/wOj+y9R/55xD2MtHsanZh7SHdFI3UXaPb9QDUZnUtw0Y+vFaB0i/P/LGIn2lpv8AYt+ettH/AN/KPY1OzH7SHdFFPMJ4lT8DUyRS95cfTNWP7DvT/wAsYR/216U3+wr/ALRRH6S0exqdmL2kO6ESLH3pGP0OKQxMCSJGI9CcU/8AsO/7wJ/38pw0O9H8MA/7af8A1qfsZ9mHtId0VXhlPQge5OaljhUJiTazeoGKn/se/wCwiP0fP9KT+xNQPZR/wPH9KPYz7MPaQ7oj8qL+6KPKi/uj8Kk/sK9/vRf9/TSf2Ff9vLPuJDR7Gp2Ye0h3GhFHQkfQCk2f9NG/IVINE1D0jHuXP+FB0S/PB+zEe7//AFqPY1OzF7SHciwO8rfiBR+5HUqfqak/sK9/552x9wc/0pRoV53jtR7k/wD1qXsKnZj9rDuRb7f1T86YfJPQr+HNWv7Eu/S1/wC+v/rU06LqP8IhA9if8KPYVOzD2sO5TMUXUSKP+A0eWvaSM/Vat/2JqZ6tCv1Y0v8AYeo/89bf/vs0ewqdmHtYdyqFlPRoT/wGnhH7qn4AVMdC1A/eEJ/E0Dw/eH73kj6yNzR7Cp2Ye1h3Iwh74H0ApDEv95vw4qb/AIR64/6YH/to1A0C8HSOH8yaPYVOzD2sO5X8vHQsfq5phEvY/mxNXP7Dvx0a2T2JP+FH9iaj2ltifQMf8KfsJ9mL2sO5RxL3VT+dGG7on5kVe/sTU/70P5n/AApRoeod5rcH0JP+FH1ep2Ye2h3KOxf4kj/76ozCOqR/nV46HqHaWBj6An/Cj+w9R/vR/wDfR/wo+r1Owe2h3KQkt/7ifqakEsfREX8iKs/2HfkDM1t9CTxSHw/e9pLdvoTR9Xqdh+1h3KxMpP8AqwB7HNNPmjoP0xVr/hH731h/Wnf8I9dd5bb8SaX1ep2Ye2h3KP749d34MRSOshHDOp/3utXj4euextm+gJx+lOGgXg/59x+B/wAKf1ep2D20O5mIkwxudjzziSpkwOrn6eZmrx0G6P8Ay1tf1pp0C87Pbt7jcaPq9TsL20O5AZVPRVP4g0wu/wDzwTHr1q0PD953aAD1O6nf2Dd/897b82o+rVX0D20O5TyO6xD2INGfRIj9Aauf2Be9pYCPUbqP7Cve8sA9yGo+rVOwe2h3KmWH8CL7gZqMyN/eH4IP8a0P7Auv+e1r/wCPU3+wbztJAR6gNzT+rVew/bQ7mfv92/74WlTaersPqgrQGg3neW3X6g0v9g3X/PxbfkaPq1XsL20O5QxEOsp/EAf0pweAfxK31YVc/wCEfu/71uf+AGmjw7cH70lqv1QjNH1ep2D20O5W8yLsgP0INMeRcfLEfxq8PD1yvKz2wPsCKX+wrz/ntH+Ro+r1Owe2h3Mx5P8Apgp+rf8A1qqybi/+pUZ9HI/kK3hoN0etxGD6EGlXQLnPN1ER3wpJprDVOwOtDuN8MlkNydgAIUZ3E+vrXQ+YfSqltaC1hEaKxHcnnNWNp/u/pXp0Y8kEmcNRqUros1FIoyOKKK0EtxgUbxwKnoooERSKNw4pEUbhxRRT6DJqhdRvPFFFJCCJRvPFT0UUMCuyjceKfEAM8UUUASVX2j0FFFAEsQGDx3px6H6UUUAQbR6VNF92iigp7A/3D9Kh2j0oopMSJo/uCkk+5RRQHUi2j0FTp9wfSiigQ2UDA471FtHoKKKGBZqKVRxxRRQwGBRvXgdasUUUICGRRvHFIijeOKKKoCeoHUbzxRRSAWNRu6VNRRQBXZRvPHenxAZPHaiigCWq20c8CiigB8I4b61Keh+lFFAFfaPQVNF9z8aKKYCv9w/SoNo9KKKQE0f3BSSD5DRRQBFtHoKnT7g+lFFADZAMDjvUW0egoooAs1FMBxxRRQAwKNw4HWrFFFAEMijcOO1JGo3DgUUUAT02iigD/9k=;" parent="flbcN0NEi42BXsgXw5nt-2" vertex="1">
          <mxGeometry width="685.14" height="490" as="geometry" />
        </mxCell>
        <mxCell id="flbcN0NEi42BXsgXw5nt-4" value="&lt;b&gt;&lt;font style=&quot;font-size: 24px&quot;&gt;By 3941&lt;/font&gt;&lt;/b&gt;" style="text;html=1;strokeColor=none;fillColor=none;align=center;verticalAlign=middle;whiteSpace=wrap;rounded=0;fontFamily=Comic Sans MS;fontSize=12;fontColor=#FFFFFF;" parent="flbcN0NEi42BXsgXw5nt-2" vertex="1">
          <mxGeometry x="500" y="420" width="149.45" height="20" as="geometry" />
        </mxCell>
        <mxCell id="flbcN0NEi42BXsgXw5nt-5" value="大" style="text;html=1;strokeColor=none;fillColor=none;align=center;verticalAlign=middle;whiteSpace=wrap;rounded=0;rotation=30;fontStyle=1;fontSize=72;fontFamily=Comic Sans MS;fontColor=#FFFFFF;" parent="flbcN0NEi42BXsgXw5nt-2" vertex="1">
          <mxGeometry x="132.56999999999994" y="230" width="40" height="20" as="geometry" />
        </mxCell>
        <mxCell id="flbcN0NEi42BXsgXw5nt-6" value="写" style="text;html=1;strokeColor=none;fillColor=none;align=center;verticalAlign=middle;whiteSpace=wrap;rounded=0;rotation=0;fontStyle=1;fontSize=72;fontFamily=Comic Sans MS;fontColor=#FFFFFF;" parent="flbcN0NEi42BXsgXw5nt-2" vertex="1">
          <mxGeometry x="227.56999999999994" y="230" width="40" height="20" as="geometry" />
        </mxCell>
        <mxCell id="flbcN0NEi42BXsgXw5nt-7" value="的" style="text;html=1;strokeColor=none;fillColor=none;align=center;verticalAlign=middle;whiteSpace=wrap;rounded=0;rotation=-30;fontStyle=1;fontSize=72;fontFamily=Comic Sans MS;fontColor=#FFFFFF;" parent="flbcN0NEi42BXsgXw5nt-2" vertex="1">
          <mxGeometry x="322.56999999999994" y="230" width="40" height="20" as="geometry" />
        </mxCell>
        <mxCell id="flbcN0NEi42BXsgXw5nt-8" value="爬&lt;br style=&quot;font-size: 72px;&quot;&gt;" style="text;html=1;strokeColor=none;fillColor=none;align=center;verticalAlign=middle;whiteSpace=wrap;rounded=0;rotation=30;fontStyle=1;fontSize=72;fontFamily=Comic Sans MS;fontColor=#FFFFFF;" parent="flbcN0NEi42BXsgXw5nt-2" vertex="1">
          <mxGeometry x="417.56999999999994" y="230" width="40" height="20" as="geometry" />
        </mxCell>
        <mxCell id="flbcN0NEi42BXsgXw5nt-9" value="虫" style="text;html=1;strokeColor=none;fillColor=none;align=center;verticalAlign=middle;whiteSpace=wrap;rounded=0;fontStyle=1;fontSize=72;fontFamily=Comic Sans MS;fontColor=#FFFFFF;" parent="flbcN0NEi42BXsgXw5nt-2" vertex="1">
          <mxGeometry x="512.5699999999999" y="230" width="40" height="20" as="geometry" />
        </mxCell>
      </root>
    </mxGraphModel>
  </diagram>
</mxfile>
